<svg xmlns="http://www.w3.org/2000/svg" width="104.251" height="69.375" viewBox="0 0 104.251 69.375">
  <g id="Calque_2" data-name="Calque 2" transform="translate(2.502 2.503)">
    <g id="Calque_1" data-name="Calque 1" transform="translate(-0.002 -0.002)">
      <path id="Tracé_1" data-name="Tracé 1" d="M49.354,40.844a26.882,26.882,0,0,0,0,4.782V62.872H47.325a13.84,13.84,0,0,0-.652-3.188c-.362-1.232-.942-1.956-1.739-1.956a3.116,3.116,0,0,0-1.014,0,11.232,11.232,0,0,0-1.811,1.232,25.433,25.433,0,0,1-5.869,3.84,19.854,19.854,0,0,1-7.246,1.3,30.143,30.143,0,0,1-15.361-3.7A24.056,24.056,0,0,1,3.415,49.757,37.968,37.968,0,0,1,.01,33.091,39.852,39.852,0,0,1,3.633,15.556a28.114,28.114,0,0,1,10-11.449A26.158,26.158,0,0,1,28.124.05a20.506,20.506,0,0,1,8.985,1.739,37.389,37.389,0,0,1,6.376,3.985,3.406,3.406,0,0,0,1.739.8c1.159,0,1.884-1.739,2.174-5.29h2.029v20H47.253c-.435-2.391-.942-4.782-1.522-7.246a14.927,14.927,0,0,0-2.826-5.8,16.593,16.593,0,0,0-6.666-4.782,19.926,19.926,0,0,0-8.405-1.811,14.854,14.854,0,0,0-7.9,2.174A17.9,17.9,0,0,0,13.922,9.9a31.52,31.52,0,0,0-3.84,9.637A51.664,51.664,0,0,0,8.7,32.149a40.287,40.287,0,0,0,5.072,22.9,17.68,17.68,0,0,0,15.651,7.246,14.492,14.492,0,0,0,5.434-.942,17.97,17.97,0,0,0,3.55-1.739,5.724,5.724,0,0,0,2.1-1.884,6.666,6.666,0,0,0,.435-2.681V46.5a15.941,15.941,0,0,0-.652-5.29,3.985,3.985,0,0,0-2.609-2.319,19.419,19.419,0,0,0-5.507-.725V36.425H44.427" transform="translate(0.002 0.257)" fill="#ffe500" stroke="#ffe500" stroke-width="5"/>
      <path id="Tracé_2" data-name="Tracé 2" d="M24.168.015a16.955,16.955,0,0,1,6.594,1.014A23.621,23.621,0,0,1,34.819,3.2l1.667.942a2.753,2.753,0,0,0,1.232,0,1.377,1.377,0,0,0,1.3-.942A20.07,20.07,0,0,0,39.674.3h1.956a34.27,34.27,0,0,1,0,3.55c0,1.377,0,3.188,0,5.362v8.84H39.674a27.1,27.1,0,0,0-1.811-7.97,16.883,16.883,0,0,0-4.565-6.3,12.39,12.39,0,0,0-8.333-2.1,11.014,11.014,0,0,0-7.246,2.753,9.42,9.42,0,0,0-2.971,7.246A10.941,10.941,0,0,0,16.7,18.275a21.738,21.738,0,0,0,5.362,4.782l7.246,4.565a77.315,77.315,0,0,1,8.043,5.507,22.825,22.825,0,0,1,5.579,6.014,14.927,14.927,0,0,1,2.029,8.043,15.506,15.506,0,0,1-2.536,9.2,15.361,15.361,0,0,1-6.666,5.434,22.462,22.462,0,0,1-9.709,1.956,20,20,0,0,1-7.246-1.087,25.216,25.216,0,0,1-4.637-2.174,6.376,6.376,0,0,0-2.609-1.232,1.449,1.449,0,0,0-1.3,1.014A18.623,18.623,0,0,0,9.6,63.127H7.43V42.259H9.459a35.5,35.5,0,0,0,2.1,9.782,16.81,16.81,0,0,0,4.927,7.246A13.767,13.767,0,0,0,25.4,62.04a12.463,12.463,0,0,0,5.434-1.232,9.927,9.927,0,0,0,4.275-3.7,12.245,12.245,0,0,0,1.739-6.376A11.159,11.159,0,0,0,35.182,44.5a20,20,0,0,0-4.71-4.927q-3.043-2.246-7.246-4.782a54.881,54.881,0,0,1-7.246-5.072,21.738,21.738,0,0,1-5.724-6.087,15.071,15.071,0,0,1-2.1-8.26,14.492,14.492,0,0,1,1.956-8.768,14.492,14.492,0,0,1,6.087-5A19.564,19.564,0,0,1,24.168.015Z" transform="translate(54.27 0.002)" fill="#ffe500" stroke="#ffe500" stroke-width="5"/>
      <path id="Tracé_3" data-name="Tracé 3" d="M8.123,1.61S5.587,14.363,21.89,21.971A23.767,23.767,0,0,1,36.382,44.94s3.55-14.927-7.246-21.738S9.427,11.682,8.123,1.61Z" transform="translate(57.707 10.073)"/>
    </g>
  </g>
</svg>
